<mxfile host="app.diagrams.net" modified="2024-01-27T12:41:39.475Z" agent="Mozilla/5.0 (Windows NT 10.0; Win64; x64) AppleWebKit/537.36 (KHTML, like Gecko) Chrome/104.0.0.0 Safari/537.36" etag="Dq-kr9cfTj0LvFP1_Qwa" version="22.1.21" type="device">
  <diagram id="C5RBs43oDa-KdzZeNtuy" name="Page-1">
    <mxGraphModel dx="1050" dy="923" grid="1" gridSize="10" guides="1" tooltips="1" connect="1" arrows="1" fold="1" page="0" pageScale="1" pageWidth="827" pageHeight="1169" math="0" shadow="0">
      <root>
        <mxCell id="WIyWlLk6GJQsqaUBKTNV-0" />
        <mxCell id="WIyWlLk6GJQsqaUBKTNV-1" parent="WIyWlLk6GJQsqaUBKTNV-0" />
        <mxCell id="-Mhi-7tcr2lpUs_XdMzi-77" value="" style="edgeStyle=orthogonalEdgeStyle;rounded=0;orthogonalLoop=1;jettySize=auto;html=1;" parent="WIyWlLk6GJQsqaUBKTNV-1" source="WIyWlLk6GJQsqaUBKTNV-3" target="-Mhi-7tcr2lpUs_XdMzi-48" edge="1">
          <mxGeometry relative="1" as="geometry" />
        </mxCell>
        <mxCell id="WIyWlLk6GJQsqaUBKTNV-3" value="Generate &lt;br&gt;SWR Recipe" style="rounded=1;whiteSpace=wrap;html=1;fontSize=12;glass=0;strokeWidth=1;shadow=0;" parent="WIyWlLk6GJQsqaUBKTNV-1" vertex="1">
          <mxGeometry x="1400" y="220" width="120" height="40" as="geometry" />
        </mxCell>
        <mxCell id="-Mhi-7tcr2lpUs_XdMzi-15" value="" style="edgeStyle=orthogonalEdgeStyle;rounded=0;orthogonalLoop=1;jettySize=auto;html=1;" parent="WIyWlLk6GJQsqaUBKTNV-1" source="MuiuewElhR3c6yhN6VMz-0" target="MuiuewElhR3c6yhN6VMz-1" edge="1">
          <mxGeometry relative="1" as="geometry" />
        </mxCell>
        <mxCell id="MuiuewElhR3c6yhN6VMz-0" value="Start" style="ellipse;whiteSpace=wrap;html=1;" parent="WIyWlLk6GJQsqaUBKTNV-1" vertex="1">
          <mxGeometry x="10" y="97.5" width="70" height="45" as="geometry" />
        </mxCell>
        <mxCell id="-Mhi-7tcr2lpUs_XdMzi-16" value="" style="edgeStyle=orthogonalEdgeStyle;rounded=0;orthogonalLoop=1;jettySize=auto;html=1;" parent="WIyWlLk6GJQsqaUBKTNV-1" source="MuiuewElhR3c6yhN6VMz-1" target="MuiuewElhR3c6yhN6VMz-2" edge="1">
          <mxGeometry relative="1" as="geometry" />
        </mxCell>
        <mxCell id="-Mhi-7tcr2lpUs_XdMzi-52" value="Yes" style="edgeLabel;html=1;align=center;verticalAlign=middle;resizable=0;points=[];" parent="-Mhi-7tcr2lpUs_XdMzi-16" vertex="1" connectable="0">
          <mxGeometry x="-0.07" relative="1" as="geometry">
            <mxPoint as="offset" />
          </mxGeometry>
        </mxCell>
        <mxCell id="-Mhi-7tcr2lpUs_XdMzi-18" value="" style="edgeStyle=orthogonalEdgeStyle;rounded=0;orthogonalLoop=1;jettySize=auto;html=1;" parent="WIyWlLk6GJQsqaUBKTNV-1" source="MuiuewElhR3c6yhN6VMz-1" target="MuiuewElhR3c6yhN6VMz-11" edge="1">
          <mxGeometry relative="1" as="geometry" />
        </mxCell>
        <mxCell id="-Mhi-7tcr2lpUs_XdMzi-51" value="No" style="edgeLabel;html=1;align=center;verticalAlign=middle;resizable=0;points=[];" parent="-Mhi-7tcr2lpUs_XdMzi-18" vertex="1" connectable="0">
          <mxGeometry x="-0.1933" y="1" relative="1" as="geometry">
            <mxPoint x="1" y="-3" as="offset" />
          </mxGeometry>
        </mxCell>
        <mxCell id="MuiuewElhR3c6yhN6VMz-1" value="SWR required?" style="rhombus;whiteSpace=wrap;html=1;" parent="WIyWlLk6GJQsqaUBKTNV-1" vertex="1">
          <mxGeometry x="160" y="80" width="120" height="80" as="geometry" />
        </mxCell>
        <mxCell id="-Mhi-7tcr2lpUs_XdMzi-17" value="" style="edgeStyle=orthogonalEdgeStyle;rounded=0;orthogonalLoop=1;jettySize=auto;html=1;" parent="WIyWlLk6GJQsqaUBKTNV-1" source="MuiuewElhR3c6yhN6VMz-2" target="MuiuewElhR3c6yhN6VMz-10" edge="1">
          <mxGeometry relative="1" as="geometry" />
        </mxCell>
        <mxCell id="-Mhi-7tcr2lpUs_XdMzi-53" value="Yes" style="edgeLabel;html=1;align=center;verticalAlign=middle;resizable=0;points=[];" parent="-Mhi-7tcr2lpUs_XdMzi-17" vertex="1" connectable="0">
          <mxGeometry x="-0.14" y="-2" relative="1" as="geometry">
            <mxPoint x="1" as="offset" />
          </mxGeometry>
        </mxCell>
        <mxCell id="-Mhi-7tcr2lpUs_XdMzi-19" style="edgeStyle=orthogonalEdgeStyle;rounded=0;orthogonalLoop=1;jettySize=auto;html=1;entryX=0;entryY=0.5;entryDx=0;entryDy=0;" parent="WIyWlLk6GJQsqaUBKTNV-1" source="MuiuewElhR3c6yhN6VMz-2" target="MuiuewElhR3c6yhN6VMz-3" edge="1">
          <mxGeometry relative="1" as="geometry" />
        </mxCell>
        <mxCell id="-Mhi-7tcr2lpUs_XdMzi-55" value="No" style="edgeLabel;html=1;align=center;verticalAlign=middle;resizable=0;points=[];" parent="-Mhi-7tcr2lpUs_XdMzi-19" vertex="1" connectable="0">
          <mxGeometry x="-0.7475" relative="1" as="geometry">
            <mxPoint as="offset" />
          </mxGeometry>
        </mxCell>
        <mxCell id="MuiuewElhR3c6yhN6VMz-2" value="Adding Part?" style="rhombus;whiteSpace=wrap;html=1;" parent="WIyWlLk6GJQsqaUBKTNV-1" vertex="1">
          <mxGeometry x="360" y="80" width="120" height="80" as="geometry" />
        </mxCell>
        <mxCell id="-Mhi-7tcr2lpUs_XdMzi-33" style="edgeStyle=orthogonalEdgeStyle;rounded=0;orthogonalLoop=1;jettySize=auto;html=1;entryX=0;entryY=0.5;entryDx=0;entryDy=0;" parent="WIyWlLk6GJQsqaUBKTNV-1" source="MuiuewElhR3c6yhN6VMz-3" target="MuiuewElhR3c6yhN6VMz-4" edge="1">
          <mxGeometry relative="1" as="geometry" />
        </mxCell>
        <mxCell id="-Mhi-7tcr2lpUs_XdMzi-57" value="No" style="edgeLabel;html=1;align=center;verticalAlign=middle;resizable=0;points=[];" parent="-Mhi-7tcr2lpUs_XdMzi-33" vertex="1" connectable="0">
          <mxGeometry x="-0.8671" relative="1" as="geometry">
            <mxPoint as="offset" />
          </mxGeometry>
        </mxCell>
        <mxCell id="6PrTuMC3pBOAge-w29PV-0" value="" style="edgeStyle=orthogonalEdgeStyle;rounded=0;orthogonalLoop=1;jettySize=auto;html=1;" parent="WIyWlLk6GJQsqaUBKTNV-1" source="MuiuewElhR3c6yhN6VMz-3" target="mhLKW3APxJxIRsOoVoXL-11" edge="1">
          <mxGeometry relative="1" as="geometry" />
        </mxCell>
        <mxCell id="6PrTuMC3pBOAge-w29PV-13" value="Yes" style="edgeLabel;html=1;align=center;verticalAlign=middle;resizable=0;points=[];" parent="6PrTuMC3pBOAge-w29PV-0" vertex="1" connectable="0">
          <mxGeometry x="-0.21" y="1" relative="1" as="geometry">
            <mxPoint as="offset" />
          </mxGeometry>
        </mxCell>
        <mxCell id="MuiuewElhR3c6yhN6VMz-3" value="Removing Part?" style="rhombus;whiteSpace=wrap;html=1;" parent="WIyWlLk6GJQsqaUBKTNV-1" vertex="1">
          <mxGeometry x="640" y="80" width="120" height="80" as="geometry" />
        </mxCell>
        <mxCell id="-Mhi-7tcr2lpUs_XdMzi-46" style="edgeStyle=orthogonalEdgeStyle;rounded=0;orthogonalLoop=1;jettySize=auto;html=1;entryX=0;entryY=0.5;entryDx=0;entryDy=0;" parent="WIyWlLk6GJQsqaUBKTNV-1" source="MuiuewElhR3c6yhN6VMz-4" target="-Mhi-7tcr2lpUs_XdMzi-6" edge="1">
          <mxGeometry relative="1" as="geometry" />
        </mxCell>
        <mxCell id="-Mhi-7tcr2lpUs_XdMzi-59" value="No" style="edgeLabel;html=1;align=center;verticalAlign=middle;resizable=0;points=[];" parent="-Mhi-7tcr2lpUs_XdMzi-46" vertex="1" connectable="0">
          <mxGeometry x="-0.785" y="-1" relative="1" as="geometry">
            <mxPoint x="1" y="-1" as="offset" />
          </mxGeometry>
        </mxCell>
        <mxCell id="6PrTuMC3pBOAge-w29PV-26" value="" style="edgeStyle=orthogonalEdgeStyle;rounded=0;orthogonalLoop=1;jettySize=auto;html=1;" parent="WIyWlLk6GJQsqaUBKTNV-1" source="MuiuewElhR3c6yhN6VMz-4" target="sZuCjx7MPzmtirDZtHkm-0" edge="1">
          <mxGeometry relative="1" as="geometry" />
        </mxCell>
        <mxCell id="6PrTuMC3pBOAge-w29PV-36" value="Yes" style="edgeLabel;html=1;align=center;verticalAlign=middle;resizable=0;points=[];" parent="6PrTuMC3pBOAge-w29PV-26" vertex="1" connectable="0">
          <mxGeometry x="-0.23" y="-1" relative="1" as="geometry">
            <mxPoint x="1" as="offset" />
          </mxGeometry>
        </mxCell>
        <mxCell id="MuiuewElhR3c6yhN6VMz-4" value="Subbing Part?" style="rhombus;whiteSpace=wrap;html=1;" parent="WIyWlLk6GJQsqaUBKTNV-1" vertex="1">
          <mxGeometry x="1040" y="80" width="120" height="80" as="geometry" />
        </mxCell>
        <mxCell id="6PrTuMC3pBOAge-w29PV-7" value="" style="edgeStyle=orthogonalEdgeStyle;rounded=0;orthogonalLoop=1;jettySize=auto;html=1;" parent="WIyWlLk6GJQsqaUBKTNV-1" source="MuiuewElhR3c6yhN6VMz-9" target="mhLKW3APxJxIRsOoVoXL-12" edge="1">
          <mxGeometry relative="1" as="geometry" />
        </mxCell>
        <mxCell id="MuiuewElhR3c6yhN6VMz-9" value="Delete Pick to &lt;br&gt;Place Action" style="rounded=1;whiteSpace=wrap;html=1;fontSize=12;glass=0;strokeWidth=1;shadow=0;" parent="WIyWlLk6GJQsqaUBKTNV-1" vertex="1">
          <mxGeometry x="740" y="480" width="120" height="40" as="geometry" />
        </mxCell>
        <mxCell id="-Mhi-7tcr2lpUs_XdMzi-78" style="edgeStyle=orthogonalEdgeStyle;rounded=0;orthogonalLoop=1;jettySize=auto;html=1;entryX=0.5;entryY=1;entryDx=0;entryDy=0;exitX=0.5;exitY=1;exitDx=0;exitDy=0;" parent="WIyWlLk6GJQsqaUBKTNV-1" source="MuiuewElhR3c6yhN6VMz-10" target="-Mhi-7tcr2lpUs_XdMzi-48" edge="1">
          <mxGeometry relative="1" as="geometry">
            <Array as="points">
              <mxPoint x="420" y="680" />
              <mxPoint x="1460" y="680" />
            </Array>
          </mxGeometry>
        </mxCell>
        <mxCell id="MuiuewElhR3c6yhN6VMz-10" value="Raise warning &lt;br&gt;and skip." style="rounded=1;whiteSpace=wrap;html=1;fontSize=12;glass=0;strokeWidth=1;shadow=0;" parent="WIyWlLk6GJQsqaUBKTNV-1" vertex="1">
          <mxGeometry x="360" y="220" width="120" height="40" as="geometry" />
        </mxCell>
        <mxCell id="-Mhi-7tcr2lpUs_XdMzi-50" style="edgeStyle=orthogonalEdgeStyle;rounded=0;orthogonalLoop=1;jettySize=auto;html=1;entryX=1;entryY=0.5;entryDx=0;entryDy=0;" parent="WIyWlLk6GJQsqaUBKTNV-1" source="MuiuewElhR3c6yhN6VMz-11" target="-Mhi-7tcr2lpUs_XdMzi-48" edge="1">
          <mxGeometry relative="1" as="geometry">
            <mxPoint x="1530" y="370" as="targetPoint" />
            <Array as="points">
              <mxPoint x="1560" />
              <mxPoint x="1560" y="340" />
            </Array>
          </mxGeometry>
        </mxCell>
        <mxCell id="MuiuewElhR3c6yhN6VMz-11" value="Use BOM Recipe" style="rounded=1;whiteSpace=wrap;html=1;fontSize=12;glass=0;strokeWidth=1;shadow=0;" parent="WIyWlLk6GJQsqaUBKTNV-1" vertex="1">
          <mxGeometry x="160" y="-20" width="120" height="40" as="geometry" />
        </mxCell>
        <mxCell id="6PrTuMC3pBOAge-w29PV-2" style="edgeStyle=orthogonalEdgeStyle;rounded=0;orthogonalLoop=1;jettySize=auto;html=1;entryX=0.5;entryY=0;entryDx=0;entryDy=0;exitX=0;exitY=0.5;exitDx=0;exitDy=0;" parent="WIyWlLk6GJQsqaUBKTNV-1" source="-Mhi-7tcr2lpUs_XdMzi-1" target="mhLKW3APxJxIRsOoVoXL-0" edge="1">
          <mxGeometry relative="1" as="geometry" />
        </mxCell>
        <mxCell id="6PrTuMC3pBOAge-w29PV-14" value="No" style="edgeLabel;html=1;align=center;verticalAlign=middle;resizable=0;points=[];" parent="6PrTuMC3pBOAge-w29PV-2" vertex="1" connectable="0">
          <mxGeometry x="-0.583" relative="1" as="geometry">
            <mxPoint x="-1" y="-1" as="offset" />
          </mxGeometry>
        </mxCell>
        <mxCell id="6PrTuMC3pBOAge-w29PV-3" style="edgeStyle=orthogonalEdgeStyle;rounded=0;orthogonalLoop=1;jettySize=auto;html=1;entryX=0.5;entryY=0;entryDx=0;entryDy=0;exitX=1;exitY=0.5;exitDx=0;exitDy=0;" parent="WIyWlLk6GJQsqaUBKTNV-1" source="-Mhi-7tcr2lpUs_XdMzi-1" target="-Mhi-7tcr2lpUs_XdMzi-14" edge="1">
          <mxGeometry relative="1" as="geometry" />
        </mxCell>
        <mxCell id="6PrTuMC3pBOAge-w29PV-15" value="Yes" style="edgeLabel;html=1;align=center;verticalAlign=middle;resizable=0;points=[];" parent="6PrTuMC3pBOAge-w29PV-3" vertex="1" connectable="0">
          <mxGeometry x="-0.5528" y="-1" relative="1" as="geometry">
            <mxPoint x="-4" y="-2" as="offset" />
          </mxGeometry>
        </mxCell>
        <mxCell id="-Mhi-7tcr2lpUs_XdMzi-1" value="Designator is&lt;br&gt;&amp;nbsp;&#39;ALL&#39;?" style="rhombus;whiteSpace=wrap;html=1;" parent="WIyWlLk6GJQsqaUBKTNV-1" vertex="1">
          <mxGeometry x="640" y="280" width="120" height="80" as="geometry" />
        </mxCell>
        <mxCell id="-Mhi-7tcr2lpUs_XdMzi-74" value="" style="edgeStyle=orthogonalEdgeStyle;rounded=0;orthogonalLoop=1;jettySize=auto;html=1;" parent="WIyWlLk6GJQsqaUBKTNV-1" source="-Mhi-7tcr2lpUs_XdMzi-6" target="WIyWlLk6GJQsqaUBKTNV-3" edge="1">
          <mxGeometry relative="1" as="geometry" />
        </mxCell>
        <mxCell id="-Mhi-7tcr2lpUs_XdMzi-6" value="Append CBID to Program Name" style="rounded=1;whiteSpace=wrap;html=1;fontSize=12;glass=0;strokeWidth=1;shadow=0;" parent="WIyWlLk6GJQsqaUBKTNV-1" vertex="1">
          <mxGeometry x="1400" y="100" width="120" height="40" as="geometry" />
        </mxCell>
        <mxCell id="6PrTuMC3pBOAge-w29PV-28" style="edgeStyle=orthogonalEdgeStyle;rounded=0;orthogonalLoop=1;jettySize=auto;html=1;entryX=0.5;entryY=0;entryDx=0;entryDy=0;exitX=0;exitY=0.5;exitDx=0;exitDy=0;" parent="WIyWlLk6GJQsqaUBKTNV-1" source="-Mhi-7tcr2lpUs_XdMzi-10" target="-Mhi-7tcr2lpUs_XdMzi-36" edge="1">
          <mxGeometry relative="1" as="geometry" />
        </mxCell>
        <mxCell id="6PrTuMC3pBOAge-w29PV-35" value="No" style="edgeLabel;html=1;align=center;verticalAlign=middle;resizable=0;points=[];" parent="6PrTuMC3pBOAge-w29PV-28" vertex="1" connectable="0">
          <mxGeometry x="-0.53" y="-1" relative="1" as="geometry">
            <mxPoint y="1" as="offset" />
          </mxGeometry>
        </mxCell>
        <mxCell id="6PrTuMC3pBOAge-w29PV-29" style="edgeStyle=orthogonalEdgeStyle;rounded=0;orthogonalLoop=1;jettySize=auto;html=1;entryX=0.5;entryY=0;entryDx=0;entryDy=0;exitX=1;exitY=0.5;exitDx=0;exitDy=0;" parent="WIyWlLk6GJQsqaUBKTNV-1" source="-Mhi-7tcr2lpUs_XdMzi-10" target="_F3i6X9sSWksMvQBRQYV-2" edge="1">
          <mxGeometry relative="1" as="geometry" />
        </mxCell>
        <mxCell id="6PrTuMC3pBOAge-w29PV-39" value="Yes" style="edgeLabel;html=1;align=center;verticalAlign=middle;resizable=0;points=[];" parent="6PrTuMC3pBOAge-w29PV-29" vertex="1" connectable="0">
          <mxGeometry x="-0.616" y="-1" relative="1" as="geometry">
            <mxPoint x="-2" y="-1" as="offset" />
          </mxGeometry>
        </mxCell>
        <mxCell id="-Mhi-7tcr2lpUs_XdMzi-10" value="Designator is &lt;br&gt;&#39;ALL&#39;?" style="rhombus;whiteSpace=wrap;html=1;" parent="WIyWlLk6GJQsqaUBKTNV-1" vertex="1">
          <mxGeometry x="1040" y="280" width="120" height="80" as="geometry" />
        </mxCell>
        <mxCell id="6PrTuMC3pBOAge-w29PV-4" value="" style="edgeStyle=orthogonalEdgeStyle;rounded=0;orthogonalLoop=1;jettySize=auto;html=1;" parent="WIyWlLk6GJQsqaUBKTNV-1" source="-Mhi-7tcr2lpUs_XdMzi-14" target="MuiuewElhR3c6yhN6VMz-9" edge="1">
          <mxGeometry relative="1" as="geometry" />
        </mxCell>
        <mxCell id="-Mhi-7tcr2lpUs_XdMzi-14" value="Replace &#39;ALL&#39; &lt;br&gt;with designators" style="rounded=1;whiteSpace=wrap;html=1;fontSize=12;glass=0;strokeWidth=1;shadow=0;" parent="WIyWlLk6GJQsqaUBKTNV-1" vertex="1">
          <mxGeometry x="740" y="380" width="120" height="40" as="geometry" />
        </mxCell>
        <mxCell id="6PrTuMC3pBOAge-w29PV-32" value="" style="edgeStyle=orthogonalEdgeStyle;rounded=0;orthogonalLoop=1;jettySize=auto;html=1;" parent="WIyWlLk6GJQsqaUBKTNV-1" source="-Mhi-7tcr2lpUs_XdMzi-36" target="6PrTuMC3pBOAge-w29PV-30" edge="1">
          <mxGeometry relative="1" as="geometry" />
        </mxCell>
        <mxCell id="6PrTuMC3pBOAge-w29PV-37" value="No" style="edgeLabel;html=1;align=center;verticalAlign=middle;resizable=0;points=[];" parent="6PrTuMC3pBOAge-w29PV-32" vertex="1" connectable="0">
          <mxGeometry x="-0.23" y="-1" relative="1" as="geometry">
            <mxPoint x="1" as="offset" />
          </mxGeometry>
        </mxCell>
        <mxCell id="6PrTuMC3pBOAge-w29PV-33" style="edgeStyle=orthogonalEdgeStyle;rounded=0;orthogonalLoop=1;jettySize=auto;html=1;entryX=0;entryY=0.5;entryDx=0;entryDy=0;" parent="WIyWlLk6GJQsqaUBKTNV-1" source="-Mhi-7tcr2lpUs_XdMzi-36" target="-Mhi-7tcr2lpUs_XdMzi-38" edge="1">
          <mxGeometry relative="1" as="geometry">
            <Array as="points">
              <mxPoint x="1100" y="400" />
              <mxPoint x="1100" y="520" />
            </Array>
          </mxGeometry>
        </mxCell>
        <mxCell id="6PrTuMC3pBOAge-w29PV-34" value="Yes" style="edgeLabel;html=1;align=center;verticalAlign=middle;resizable=0;points=[];" parent="6PrTuMC3pBOAge-w29PV-33" vertex="1" connectable="0">
          <mxGeometry x="-0.818" y="2" relative="1" as="geometry">
            <mxPoint x="-3" y="2" as="offset" />
          </mxGeometry>
        </mxCell>
        <mxCell id="-Mhi-7tcr2lpUs_XdMzi-36" value="All designators included?" style="rhombus;whiteSpace=wrap;html=1;" parent="WIyWlLk6GJQsqaUBKTNV-1" vertex="1">
          <mxGeometry x="940" y="360" width="120" height="80" as="geometry" />
        </mxCell>
        <mxCell id="c2e77vGIHL09vZSPXbah-2" style="edgeStyle=orthogonalEdgeStyle;rounded=0;orthogonalLoop=1;jettySize=auto;html=1;" parent="WIyWlLk6GJQsqaUBKTNV-1" source="-Mhi-7tcr2lpUs_XdMzi-38" edge="1">
          <mxGeometry relative="1" as="geometry">
            <mxPoint x="1300" y="120" as="targetPoint" />
          </mxGeometry>
        </mxCell>
        <mxCell id="-Mhi-7tcr2lpUs_XdMzi-38" value="Modify Feeder Lane" style="rounded=1;whiteSpace=wrap;html=1;fontSize=12;glass=0;strokeWidth=1;shadow=0;" parent="WIyWlLk6GJQsqaUBKTNV-1" vertex="1">
          <mxGeometry x="1140" y="500" width="120" height="40" as="geometry" />
        </mxCell>
        <mxCell id="-Mhi-7tcr2lpUs_XdMzi-48" value="End" style="ellipse;whiteSpace=wrap;html=1;" parent="WIyWlLk6GJQsqaUBKTNV-1" vertex="1">
          <mxGeometry x="1425" y="317.5" width="70" height="45" as="geometry" />
        </mxCell>
        <mxCell id="6PrTuMC3pBOAge-w29PV-31" value="" style="edgeStyle=orthogonalEdgeStyle;rounded=0;orthogonalLoop=1;jettySize=auto;html=1;" parent="WIyWlLk6GJQsqaUBKTNV-1" source="_F3i6X9sSWksMvQBRQYV-2" target="-Mhi-7tcr2lpUs_XdMzi-38" edge="1">
          <mxGeometry relative="1" as="geometry" />
        </mxCell>
        <mxCell id="_F3i6X9sSWksMvQBRQYV-2" value="Replace &#39;ALL&#39; &lt;br&gt;with designators" style="rounded=1;whiteSpace=wrap;html=1;fontSize=12;glass=0;strokeWidth=1;shadow=0;" parent="WIyWlLk6GJQsqaUBKTNV-1" vertex="1">
          <mxGeometry x="1140" y="380" width="120" height="40" as="geometry" />
        </mxCell>
        <mxCell id="6PrTuMC3pBOAge-w29PV-5" style="edgeStyle=orthogonalEdgeStyle;rounded=0;orthogonalLoop=1;jettySize=auto;html=1;entryX=0;entryY=0.5;entryDx=0;entryDy=0;" parent="WIyWlLk6GJQsqaUBKTNV-1" source="mhLKW3APxJxIRsOoVoXL-0" target="MuiuewElhR3c6yhN6VMz-9" edge="1">
          <mxGeometry relative="1" as="geometry">
            <Array as="points">
              <mxPoint x="700" y="400" />
              <mxPoint x="700" y="500" />
            </Array>
          </mxGeometry>
        </mxCell>
        <mxCell id="6PrTuMC3pBOAge-w29PV-16" value="Yes" style="edgeLabel;html=1;align=center;verticalAlign=middle;resizable=0;points=[];" parent="6PrTuMC3pBOAge-w29PV-5" vertex="1" connectable="0">
          <mxGeometry x="-0.7613" y="1" relative="1" as="geometry">
            <mxPoint x="-5" y="1" as="offset" />
          </mxGeometry>
        </mxCell>
        <mxCell id="6PrTuMC3pBOAge-w29PV-21" value="" style="edgeStyle=orthogonalEdgeStyle;rounded=0;orthogonalLoop=1;jettySize=auto;html=1;" parent="WIyWlLk6GJQsqaUBKTNV-1" source="mhLKW3APxJxIRsOoVoXL-0" target="6PrTuMC3pBOAge-w29PV-20" edge="1">
          <mxGeometry relative="1" as="geometry" />
        </mxCell>
        <mxCell id="6PrTuMC3pBOAge-w29PV-23" value="No" style="edgeLabel;html=1;align=center;verticalAlign=middle;resizable=0;points=[];" parent="6PrTuMC3pBOAge-w29PV-21" vertex="1" connectable="0">
          <mxGeometry x="-0.13" relative="1" as="geometry">
            <mxPoint as="offset" />
          </mxGeometry>
        </mxCell>
        <mxCell id="mhLKW3APxJxIRsOoVoXL-0" value="All designators included?" style="rhombus;whiteSpace=wrap;html=1;" parent="WIyWlLk6GJQsqaUBKTNV-1" vertex="1">
          <mxGeometry x="540" y="360" width="120" height="80" as="geometry" />
        </mxCell>
        <mxCell id="6PrTuMC3pBOAge-w29PV-1" value="" style="edgeStyle=orthogonalEdgeStyle;rounded=0;orthogonalLoop=1;jettySize=auto;html=1;" parent="WIyWlLk6GJQsqaUBKTNV-1" source="mhLKW3APxJxIRsOoVoXL-11" target="-Mhi-7tcr2lpUs_XdMzi-1" edge="1">
          <mxGeometry relative="1" as="geometry" />
        </mxCell>
        <mxCell id="mhLKW3APxJxIRsOoVoXL-11" value="Delete Component" style="rounded=1;whiteSpace=wrap;html=1;fontSize=12;glass=0;strokeWidth=1;shadow=0;" parent="WIyWlLk6GJQsqaUBKTNV-1" vertex="1">
          <mxGeometry x="640" y="200" width="120" height="40" as="geometry" />
        </mxCell>
        <mxCell id="6PrTuMC3pBOAge-w29PV-11" style="edgeStyle=orthogonalEdgeStyle;rounded=0;orthogonalLoop=1;jettySize=auto;html=1;" parent="WIyWlLk6GJQsqaUBKTNV-1" source="mhLKW3APxJxIRsOoVoXL-12" edge="1">
          <mxGeometry relative="1" as="geometry">
            <mxPoint x="900" y="120" as="targetPoint" />
          </mxGeometry>
        </mxCell>
        <mxCell id="mhLKW3APxJxIRsOoVoXL-12" value="Delete Feeder Lane" style="rounded=1;whiteSpace=wrap;html=1;fontSize=12;glass=0;strokeWidth=1;shadow=0;" parent="WIyWlLk6GJQsqaUBKTNV-1" vertex="1">
          <mxGeometry x="740" y="580" width="120" height="40" as="geometry" />
        </mxCell>
        <mxCell id="6PrTuMC3pBOAge-w29PV-27" value="" style="edgeStyle=orthogonalEdgeStyle;rounded=0;orthogonalLoop=1;jettySize=auto;html=1;" parent="WIyWlLk6GJQsqaUBKTNV-1" source="sZuCjx7MPzmtirDZtHkm-0" target="-Mhi-7tcr2lpUs_XdMzi-10" edge="1">
          <mxGeometry relative="1" as="geometry" />
        </mxCell>
        <mxCell id="sZuCjx7MPzmtirDZtHkm-0" value="Modify Component" style="rounded=1;whiteSpace=wrap;html=1;fontSize=12;glass=0;strokeWidth=1;shadow=0;" parent="WIyWlLk6GJQsqaUBKTNV-1" vertex="1">
          <mxGeometry x="1040" y="200" width="120" height="40" as="geometry" />
        </mxCell>
        <mxCell id="c2e77vGIHL09vZSPXbah-0" style="edgeStyle=orthogonalEdgeStyle;rounded=0;orthogonalLoop=1;jettySize=auto;html=1;entryX=0;entryY=0.5;entryDx=0;entryDy=0;" parent="WIyWlLk6GJQsqaUBKTNV-1" source="sZuCjx7MPzmtirDZtHkm-1" target="-Mhi-7tcr2lpUs_XdMzi-48" edge="1">
          <mxGeometry relative="1" as="geometry">
            <Array as="points">
              <mxPoint x="1360" y="620" />
              <mxPoint x="1360" y="340" />
            </Array>
          </mxGeometry>
        </mxCell>
        <mxCell id="sZuCjx7MPzmtirDZtHkm-1" value="Raise warning&lt;br&gt;and skip" style="rounded=1;whiteSpace=wrap;html=1;fontSize=12;glass=0;strokeWidth=1;shadow=0;" parent="WIyWlLk6GJQsqaUBKTNV-1" vertex="1">
          <mxGeometry x="940" y="600" width="120" height="40" as="geometry" />
        </mxCell>
        <mxCell id="6PrTuMC3pBOAge-w29PV-10" style="edgeStyle=orthogonalEdgeStyle;rounded=0;orthogonalLoop=1;jettySize=auto;html=1;entryX=0;entryY=0.5;entryDx=0;entryDy=0;" parent="WIyWlLk6GJQsqaUBKTNV-1" source="6PrTuMC3pBOAge-w29PV-8" target="mhLKW3APxJxIRsOoVoXL-12" edge="1">
          <mxGeometry relative="1" as="geometry" />
        </mxCell>
        <mxCell id="6PrTuMC3pBOAge-w29PV-18" value="No" style="edgeLabel;html=1;align=center;verticalAlign=middle;resizable=0;points=[];" parent="6PrTuMC3pBOAge-w29PV-10" vertex="1" connectable="0">
          <mxGeometry x="-0.704" y="-2" relative="1" as="geometry">
            <mxPoint x="14" y="-2" as="offset" />
          </mxGeometry>
        </mxCell>
        <mxCell id="6PrTuMC3pBOAge-w29PV-24" style="edgeStyle=orthogonalEdgeStyle;rounded=0;orthogonalLoop=1;jettySize=auto;html=1;exitX=0.5;exitY=1;exitDx=0;exitDy=0;" parent="WIyWlLk6GJQsqaUBKTNV-1" source="6PrTuMC3pBOAge-w29PV-8" edge="1">
          <mxGeometry relative="1" as="geometry">
            <mxPoint x="900" y="120" as="targetPoint" />
            <Array as="points">
              <mxPoint x="600" y="660" />
              <mxPoint x="901" y="660" />
            </Array>
          </mxGeometry>
        </mxCell>
        <mxCell id="6PrTuMC3pBOAge-w29PV-25" value="No" style="edgeLabel;html=1;align=center;verticalAlign=middle;resizable=0;points=[];" parent="6PrTuMC3pBOAge-w29PV-24" vertex="1" connectable="0">
          <mxGeometry x="-0.9805" y="1" relative="1" as="geometry">
            <mxPoint x="-1" y="3" as="offset" />
          </mxGeometry>
        </mxCell>
        <mxCell id="H6_hTDP-gHmWQtFwpfmy-0" value="Yes" style="edgeLabel;html=1;align=center;verticalAlign=middle;resizable=0;points=[];" parent="6PrTuMC3pBOAge-w29PV-24" vertex="1" connectable="0">
          <mxGeometry x="-0.9746" relative="1" as="geometry">
            <mxPoint as="offset" />
          </mxGeometry>
        </mxCell>
        <mxCell id="6PrTuMC3pBOAge-w29PV-8" value="Feeder used in &lt;br&gt;non-impacted &lt;br&gt;designator?" style="rhombus;whiteSpace=wrap;html=1;" parent="WIyWlLk6GJQsqaUBKTNV-1" vertex="1">
          <mxGeometry x="525" y="565" width="150" height="70" as="geometry" />
        </mxCell>
        <mxCell id="6PrTuMC3pBOAge-w29PV-22" value="" style="edgeStyle=orthogonalEdgeStyle;rounded=0;orthogonalLoop=1;jettySize=auto;html=1;" parent="WIyWlLk6GJQsqaUBKTNV-1" source="6PrTuMC3pBOAge-w29PV-20" target="6PrTuMC3pBOAge-w29PV-8" edge="1">
          <mxGeometry relative="1" as="geometry" />
        </mxCell>
        <mxCell id="6PrTuMC3pBOAge-w29PV-20" value="Delete Pick to &lt;br&gt;Place Action" style="rounded=1;whiteSpace=wrap;html=1;fontSize=12;glass=0;strokeWidth=1;shadow=0;" parent="WIyWlLk6GJQsqaUBKTNV-1" vertex="1">
          <mxGeometry x="540" y="480" width="120" height="40" as="geometry" />
        </mxCell>
        <mxCell id="6PrTuMC3pBOAge-w29PV-38" style="edgeStyle=orthogonalEdgeStyle;rounded=0;orthogonalLoop=1;jettySize=auto;html=1;entryX=0;entryY=0.5;entryDx=0;entryDy=0;" parent="WIyWlLk6GJQsqaUBKTNV-1" source="6PrTuMC3pBOAge-w29PV-30" target="-Mhi-7tcr2lpUs_XdMzi-38" edge="1">
          <mxGeometry relative="1" as="geometry" />
        </mxCell>
        <mxCell id="6PrTuMC3pBOAge-w29PV-41" value="No" style="edgeLabel;html=1;align=center;verticalAlign=middle;resizable=0;points=[];" parent="6PrTuMC3pBOAge-w29PV-38" vertex="1" connectable="0">
          <mxGeometry x="-0.6554" y="1" relative="1" as="geometry">
            <mxPoint as="offset" />
          </mxGeometry>
        </mxCell>
        <mxCell id="6PrTuMC3pBOAge-w29PV-40" value="" style="edgeStyle=orthogonalEdgeStyle;rounded=0;orthogonalLoop=1;jettySize=auto;html=1;" parent="WIyWlLk6GJQsqaUBKTNV-1" source="6PrTuMC3pBOAge-w29PV-30" target="sZuCjx7MPzmtirDZtHkm-1" edge="1">
          <mxGeometry relative="1" as="geometry" />
        </mxCell>
        <mxCell id="c2e77vGIHL09vZSPXbah-1" value="Yes" style="edgeLabel;html=1;align=center;verticalAlign=middle;resizable=0;points=[];" parent="6PrTuMC3pBOAge-w29PV-40" vertex="1" connectable="0">
          <mxGeometry x="-0.1644" relative="1" as="geometry">
            <mxPoint as="offset" />
          </mxGeometry>
        </mxCell>
        <mxCell id="6PrTuMC3pBOAge-w29PV-30" value="Feeder used in &lt;br&gt;non-impacted &lt;br&gt;designator?" style="rhombus;whiteSpace=wrap;html=1;" parent="WIyWlLk6GJQsqaUBKTNV-1" vertex="1">
          <mxGeometry x="925" y="485" width="150" height="70" as="geometry" />
        </mxCell>
      </root>
    </mxGraphModel>
  </diagram>
</mxfile>
